<svg xmlns="http://www.w3.org/2000/svg" xml:space="preserve" style="fill-rule:evenodd;clip-rule:evenodd;stroke-linejoin:round;stroke-miterlimit:2" viewBox="0 0 500 101">
  <path d="M0 100.124h53.467l11.014-11.015H.003M17.824 82.302h53.464l11.017-11.014H17.824M35.645 64.478h53.467l11.014-11.014H35.645" style="fill:#a5a5a5;fill-rule:nonzero"/>
  <path d="M64.481 35.643v53.466l-11.014 11.015V35.643M82.305 17.821v53.467L71.288 82.302V17.821M100.126 0v53.464L89.112 64.478V0M167.957 35.056c-1.707-2.316-3.931-4.007-6.672-5.073-2.742-1.067-5.425-1.6-8.046-1.6-3.352 0-6.399.611-9.141 1.828-2.741 1.219-5.105 2.894-7.085 5.027-1.981 2.133-3.506 4.634-4.572 7.496-1.067 2.865-1.6 5.973-1.6 9.326 0 3.535.517 6.764 1.554 9.69 1.035 2.927 2.514 5.44 4.435 7.542 1.919 2.103 4.221 3.733 6.904 4.89 2.68 1.158 5.697 1.737 9.05 1.737 3.352 0 6.55-.686 9.235-2.058 2.68-1.372 4.845-3.184 6.491-5.44l9.234 6.49a29.534 29.534 0 0 1-10.513 8.364c-4.146 1.981-8.991 2.972-14.536 2.972-5.059 0-9.706-.839-13.94-2.513-4.237-1.675-7.879-4.023-10.926-7.041-3.05-3.017-5.424-6.611-7.132-10.786-1.707-4.175-2.559-8.79-2.559-13.85 0-5.06.898-9.857 2.696-14.035 1.798-4.175 4.266-7.726 7.405-10.649 3.138-2.927 6.841-5.181 11.108-6.765 4.266-1.583 8.897-2.377 13.895-2.377 2.072 0 4.234.199 6.491.595a33.081 33.081 0 0 1 6.491 1.828 31.443 31.443 0 0 1 5.85 3.063 18.858 18.858 0 0 1 4.663 4.39l-8.777 6.949h-.003ZM180.39 62.485c0-3.474.624-6.628 1.873-9.463 1.249-2.835 2.94-5.258 5.073-7.268 2.133-2.01 4.663-3.564 7.587-4.663 2.923-1.099 6.035-1.646 9.326-1.646 3.291 0 6.399.55 9.326 1.646 2.926 1.096 5.453 2.65 7.589 4.663 2.133 2.013 3.824 4.435 5.073 7.268 1.249 2.835 1.874 5.987 1.874 9.463 0 3.475-.625 6.643-1.874 9.508-1.249 2.865-2.942 5.317-5.073 7.359-2.133 2.042-4.663 3.642-7.589 4.8-2.927 1.157-6.033 1.736-9.326 1.736-3.294 0-6.4-.579-9.326-1.736-2.927-1.158-5.457-2.758-7.587-4.8-2.133-2.042-3.827-4.494-5.073-7.359-1.249-2.865-1.873-6.035-1.873-9.508Zm11.153 0c0 1.707.258 3.414.777 5.118.518 1.707 1.295 3.232 2.332 4.572 1.034 1.343 2.345 2.439 3.931 3.291 1.584.855 3.474 1.281 5.668 1.281 2.195 0 4.082-.426 5.668-1.281 1.584-.852 2.895-1.951 3.932-3.291 1.037-1.34 1.811-2.865 2.331-4.572a17.52 17.52 0 0 0 .777-5.118c0-1.708-.259-3.399-.777-5.073a14.183 14.183 0 0 0-2.331-4.527c-1.037-1.34-2.348-2.422-3.932-3.245-1.586-.823-3.473-1.233-5.668-1.233-2.194 0-4.084.413-5.668 1.233-1.586.823-2.894 1.905-3.931 3.245a14.174 14.174 0 0 0-2.332 4.527 17.134 17.134 0 0 0-.777 5.073ZM234.328 15.493H245.3v69.115h-10.972zM294.119 84.607h-10.422v-7.04h-.182c-.976 2.195-2.667 4.13-5.073 5.805-2.409 1.675-5.258 2.513-8.549 2.513-2.865 0-5.317-.503-7.359-1.508s-3.72-2.332-5.028-3.977c-1.31-1.646-2.272-3.535-2.88-5.668a23.75 23.75 0 0 1-.914-6.582V40.724h10.971v24.317c0 1.281.091 2.621.274 4.023.182 1.401.578 2.666 1.187 3.794a7.838 7.838 0 0 0 2.513 2.788c1.067.731 2.482 1.096 4.251 1.096 1.769 0 3.213-.351 4.526-1.051 1.311-.699 2.377-1.6 3.2-2.696.823-1.096 1.447-2.361 1.873-3.795.426-1.431.641-2.88.641-4.341V40.724h10.971v43.883ZM355.095 39.445c2.865 0 5.317.504 7.359 1.509s3.717 2.332 5.028 3.977c1.31 1.646 2.269 3.535 2.88 5.668.609 2.133.914 4.328.914 6.582v27.426h-10.971V60.29c0-1.281-.091-2.621-.274-4.023-.182-1.401-.578-2.666-1.189-3.795a7.874 7.874 0 0 0-2.514-2.787c-1.067-.731-2.484-1.096-4.251-1.096-1.766 0-3.17.365-4.389 1.096a9.596 9.596 0 0 0-3.018 2.836 12.086 12.086 0 0 0-1.736 3.886 17.163 17.163 0 0 0-.55 4.25V84.61h-10.971V58.098c0-2.742-.657-5.012-1.965-6.813-1.31-1.798-3.368-2.696-6.171-2.696-1.646 0-3.08.351-4.296 1.051-1.22.702-2.211 1.6-2.972 2.696-.764 1.096-1.34 2.363-1.737 3.795a16.189 16.189 0 0 0-.595 4.341v24.135h-10.971V40.724h10.422v7.04h.182a13.072 13.072 0 0 1 1.964-3.109 15.26 15.26 0 0 1 2.927-2.65c1.128-.791 2.422-1.418 3.886-1.873 1.463-.459 3.076-.687 4.845-.687 3.411 0 6.247.764 8.503 2.286 2.254 1.525 3.991 3.535 5.213 6.036 1.463-2.68 3.411-4.738 5.85-6.172 2.436-1.431 5.303-2.15 8.594-2.15h.003ZM379.506 40.726h10.422v7.041h.183c.975-2.195 2.666-4.127 5.073-5.805 2.406-1.675 5.258-2.514 8.549-2.514 2.864 0 5.316.504 7.359 1.509 2.042 1.005 3.717 2.331 5.027 3.977 1.311 1.645 2.27 3.535 2.881 5.668a23.9 23.9 0 0 1 .914 6.582V84.61h-10.972V60.292c0-1.281-.091-2.621-.273-4.022-.182-1.402-.579-2.667-1.187-3.795a7.893 7.893 0 0 0-2.514-2.787c-1.067-.732-2.484-1.096-4.25-1.096s-3.291.351-4.572 1.051c-1.281.702-2.332 1.599-3.154 2.695-.823 1.097-1.45 2.364-1.874 3.795a15.173 15.173 0 0 0-.64 4.342V84.61h-10.972V40.726ZM455.385 79.03h-.273c-1.096 1.951-2.865 3.551-5.304 4.8-2.439 1.249-5.212 1.873-8.318 1.873-1.769 0-3.613-.228-5.532-.686a16.503 16.503 0 0 1-5.303-2.286c-1.616-1.066-2.956-2.468-4.023-4.205-1.066-1.736-1.6-3.885-1.6-6.445 0-3.291.928-5.912 2.788-7.863 1.857-1.95 4.25-3.443 7.176-4.48 2.927-1.035 6.172-1.721 9.736-2.058 3.565-.335 7.054-.504 10.468-.504V56.08c0-2.742-.991-4.768-2.972-6.081-1.98-1.311-4.341-1.964-7.086-1.964-2.318 0-4.542.487-6.673 1.463-2.133.975-3.901 2.165-5.303 3.564l-5.668-6.673c2.498-2.315 5.378-4.052 8.64-5.212 3.259-1.158 6.566-1.737 9.918-1.737 3.9 0 7.115.549 9.645 1.646 2.527 1.096 4.527 2.529 5.987 4.295a15.418 15.418 0 0 1 3.063 5.942c.579 2.195.869 4.387.869 6.582v26.694h-10.24v-5.577l.005.008Zm-.182-14.444h-2.468a72.87 72.87 0 0 0-5.577.227c-1.951.153-3.749.488-5.395 1.005-1.645.52-3.018 1.249-4.114 2.195-1.096.946-1.645 2.241-1.645 3.886 0 1.037.228 1.905.686 2.605a5.256 5.256 0 0 0 1.782 1.691 7.956 7.956 0 0 0 2.468.914 14.01 14.01 0 0 0 2.742.273c3.779 0 6.643-1.005 8.594-3.017 1.951-2.01 2.927-4.755 2.927-8.228v-1.554.003ZM473.852 40.726h10.513v7.314h.183c1.219-2.559 2.926-4.631 5.118-6.217 2.195-1.584 4.754-2.378 7.681-2.378.426 0 .882.017 1.372.046.488.032.914.107 1.281.228v10.057a15.107 15.107 0 0 0-1.873-.364 13.337 13.337 0 0 0-1.509-.091c-2.5 0-4.51.458-6.035 1.372-1.525.914-2.712 2.013-3.564 3.291-.855 1.281-1.434 2.591-1.737 3.931-.306 1.343-.458 2.41-.458 3.2V84.61h-10.972V40.726Z" style="fill-rule:nonzero"/>
</svg>
