<?xml version="1.0" encoding="UTF-8" standalone="no"?><!DOCTYPE svg PUBLIC "-//W3C//DTD SVG 1.1//EN" "http://www.w3.org/Graphics/SVG/1.1/DTD/svg11.dtd"><svg width="100%" height="100%" viewBox="0 0 100 40" version="1.1" xmlns="http://www.w3.org/2000/svg" xmlns:xlink="http://www.w3.org/1999/xlink" xml:space="preserve" xmlns:serif="http://www.serif.com/" style="fill-rule:evenodd;clip-rule:evenodd;stroke-linejoin:round;stroke-miterlimit:2;"><path d="M17.317,16.049l0.302,0l2.434,-13.66l5.129,0l-5.775,32.704l-5.084,-0l0.734,-4.222l-0.323,0c-1.033,2.801 -3.729,4.589 -6.828,4.589c-4.827,-0 -7.906,-3.168 -7.906,-8.144c-0,-1.057 0.085,-2.11 0.214,-2.929l0.626,-3.814c0.927,-5.88 4.588,-9.479 9.588,-9.479c3.511,-0 6.4,1.961 6.892,4.955l-0.003,0Zm-11.376,4.803l-0.581,3.361c-0.085,0.537 -0.173,1.271 -0.173,1.961c-0,2.91 1.896,4.847 4.761,4.847c3.168,0 5.472,-2.09 6.098,-5.492l0.625,-3.576c0.109,-0.602 0.129,-1.033 0.129,-1.465c0,-2.93 -2.175,-5.085 -5.149,-5.085c-2.974,0 -5.084,1.962 -5.71,5.452l0,-0.003Z" style="fill-rule:nonzero;"/><path d="M29.233,30.416l-0.367,0l-0.819,4.673l-5.193,0l5.778,-32.7l5.169,0l-2.263,12.861l0.431,0c1.186,-2.562 3.749,-4.156 6.764,-4.156c4.738,-0 7.776,3.232 7.776,8.228c0,0.731 -0.064,1.465 -0.238,2.498l-0.734,4.093c-1.057,6.073 -4.503,9.543 -9.37,9.543c-3.685,0 -6.356,-1.937 -6.937,-5.04l0.003,0Zm11.311,-4.694l0.646,-3.64c0.085,-0.581 0.129,-1.206 0.129,-1.917c0,-2.93 -1.896,-4.802 -4.955,-4.802c-3.059,-0 -5.278,2.199 -5.88,5.492l-0.646,3.596c-0.085,0.537 -0.129,1.057 -0.129,1.615c0,2.865 2.155,5.02 5.149,5.02c2.995,-0 5.085,-2.026 5.686,-5.364Z" style="fill-rule:nonzero;"/><path d="M64.798,19.669l0,-0.258c0,-2.458 -1.981,-4.222 -4.782,-4.222c-3.426,0 -5.451,2.111 -6.247,6.4l-0.278,1.679c-0.174,0.928 -0.303,2.006 -0.303,2.716c0,3.446 1.808,5.363 5.02,5.363c2.587,0 4.439,-1.271 5.258,-3.725l4.911,0c-0.992,4.827 -5.084,7.97 -10.448,7.97c-5.968,0 -9.717,-3.47 -9.717,-8.938c0,-0.928 0.085,-1.982 0.259,-3.08c0.064,-0.452 0.407,-2.498 0.56,-3.273c1.034,-5.795 5.279,-9.326 11.182,-9.326c5.904,-0 9.544,3.188 9.544,7.865c0,0.238 -0.02,0.537 -0.044,0.839l-4.911,0l-0.004,-0.01Z" style="fill-rule:nonzero;"/><path d="M69.315,39.603l23.704,0l6.981,-39.603l-23.7,0l-6.985,39.603Z" style="fill-rule:nonzero;"/></svg>